<svg xmlns="http://www.w3.org/2000/svg" xmlns:xlink="http://www.w3.org/1999/xlink" width="50" zoomAndPan="magnify" viewBox="0 0 37.5 37.499999" height="50" preserveAspectRatio="xMidYMid meet" version="1.0"><defs><clipPath id="496439126c"><path d="M 12.214844 5.078125 L 24.796875 5.078125 L 24.796875 33.203125 L 12.214844 33.203125 Z M 12.214844 5.078125 " clip-rule="nonzero"/></clipPath><clipPath id="e0d76d92c2"><path d="M 0 0 L 37.007812 0 L 37.007812 37.007812 L 0 37.007812 Z M 0 0 " clip-rule="nonzero"/></clipPath><clipPath id="4e5d754382"><path d="M 18.503906 0 C 8.285156 0 0 8.285156 0 18.503906 C 0 28.722656 8.285156 37.007812 18.503906 37.007812 C 28.722656 37.007812 37.007812 28.722656 37.007812 18.503906 C 37.007812 8.285156 28.722656 0 18.503906 0 Z M 18.503906 0 " clip-rule="nonzero"/></clipPath></defs><g clip-path="url(#496439126c)"><path fill="#8c52ff" d="M 24.785156 5.097656 L 13.078125 18.53125 L 19.484375 17.628906 C 19.484375 17.628906 12.214844 32.960938 12.585938 33.121094 C 12.953125 33.277344 24.785156 14.566406 24.785156 14.566406 L 19.613281 14.800781 Z M 24.785156 5.097656 " fill-opacity="1" fill-rule="nonzero"/></g><g clip-path="url(#e0d76d92c2)"><g clip-path="url(#4e5d754382)"><path stroke-linecap="butt" transform="matrix(0.740132, 0, 0, 0.740132, 0.0000005, 0)" fill="none" stroke-linejoin="miter" d="M 25.000834 0 C 11.194167 0 -0.000000675556 11.194167 -0.000000675556 25.000835 C -0.000000675556 38.807503 11.194167 50.00167 25.000834 50.00167 C 38.807502 50.00167 50.001669 38.807503 50.001669 25.000835 C 50.001669 11.194167 38.807502 0 25.000834 0 Z M 25.000834 0 " stroke="#8c52ff" stroke-width="4" stroke-opacity="1" stroke-miterlimit="4"/></g></g></svg>