<svg xmlns="http://www.w3.org/2000/svg" xmlns:xlink="http://www.w3.org/1999/xlink" width="350" zoomAndPan="magnify" viewBox="0 0 262.5 74.999997" height="100" preserveAspectRatio="xMidYMid meet" version="1.0"><defs><g/><clipPath id="4c844d4e7d"><path d="M 201 14.253906 L 221.144531 14.253906 L 221.144531 59.917969 L 201 59.917969 Z M 201 14.253906 " clip-rule="nonzero"/></clipPath></defs><g fill="#ffffff" fill-opacity="1"><g transform="translate(12.423278, 53.449936)"><g><path d="M 22.28125 -20.25 C 21.75 -21.238281 20.984375 -21.992188 19.984375 -22.515625 C 18.984375 -23.035156 17.804688 -23.296875 16.453125 -23.296875 C 14.117188 -23.296875 12.25 -22.53125 10.84375 -21 C 9.4375 -19.46875 8.734375 -17.421875 8.734375 -14.859375 C 8.734375 -12.128906 9.472656 -9.992188 10.953125 -8.453125 C 12.429688 -6.921875 14.460938 -6.15625 17.046875 -6.15625 C 18.816406 -6.15625 20.3125 -6.601562 21.53125 -7.5 C 22.757812 -8.40625 23.65625 -9.703125 24.21875 -11.390625 L 15.0625 -11.390625 L 15.0625 -16.71875 L 30.765625 -16.71875 L 30.765625 -10 C 30.234375 -8.195312 29.328125 -6.519531 28.046875 -4.96875 C 26.765625 -3.425781 25.140625 -2.175781 23.171875 -1.21875 C 21.203125 -0.257812 18.976562 0.21875 16.5 0.21875 C 13.570312 0.21875 10.960938 -0.421875 8.671875 -1.703125 C 6.378906 -2.984375 4.59375 -4.765625 3.3125 -7.046875 C 2.03125 -9.328125 1.390625 -11.929688 1.390625 -14.859375 C 1.390625 -17.785156 2.03125 -20.394531 3.3125 -22.6875 C 4.59375 -24.976562 6.367188 -26.765625 8.640625 -28.046875 C 10.921875 -29.328125 13.523438 -29.96875 16.453125 -29.96875 C 20.003906 -29.96875 22.992188 -29.109375 25.421875 -27.390625 C 27.859375 -25.671875 29.472656 -23.289062 30.265625 -20.25 Z M 22.28125 -20.25 "/></g></g></g><g fill="#ffffff" fill-opacity="1"><g transform="translate(44.580348, 53.449936)"><g><path d="M 21.0625 -5.234375 L 10 -5.234375 L 8.234375 0 L 0.671875 0 L 11.390625 -29.625 L 19.75 -29.625 L 30.46875 0 L 22.828125 0 Z M 19.203125 -10.796875 L 15.53125 -21.65625 L 11.90625 -10.796875 Z M 19.203125 -10.796875 "/></g></g></g><g fill="#ffffff" fill-opacity="1"><g transform="translate(75.682405, 53.449936)"><g><path d="M 36.171875 -29.625 L 36.171875 0 L 28.953125 0 L 28.953125 -17.765625 L 22.328125 0 L 16.5 0 L 9.828125 -17.8125 L 9.828125 0 L 2.609375 0 L 2.609375 -29.625 L 11.140625 -29.625 L 19.453125 -9.109375 L 27.6875 -29.625 Z M 36.171875 -29.625 "/></g></g></g><g fill="#ffffff" fill-opacity="1"><g transform="translate(114.422818, 53.449936)"><g><path d="M 9.828125 -23.84375 L 9.828125 -17.859375 L 19.5 -17.859375 L 19.5 -12.28125 L 9.828125 -12.28125 L 9.828125 -5.78125 L 20.765625 -5.78125 L 20.765625 0 L 2.609375 0 L 2.609375 -29.625 L 20.765625 -29.625 L 20.765625 -23.84375 Z M 9.828125 -23.84375 "/></g></g></g><g fill="#ffffff" fill-opacity="1"><g transform="translate(137.253494, 53.449936)"><g/></g></g><g fill="#ffffff" fill-opacity="1"><g transform="translate(146.200083, 53.449936)"><g><path d="M 23.921875 -29.625 L 23.921875 -23.84375 L 16.078125 -23.84375 L 16.078125 0 L 8.859375 0 L 8.859375 -23.84375 L 1.015625 -23.84375 L 1.015625 -29.625 Z M 23.921875 -29.625 "/></g></g></g><g fill="#ffffff" fill-opacity="1"><g transform="translate(171.140808, 53.449936)"><g><path d="M 21.0625 -5.234375 L 10 -5.234375 L 8.234375 0 L 0.671875 0 L 11.390625 -29.625 L 19.75 -29.625 L 30.46875 0 L 22.828125 0 Z M 19.203125 -10.796875 L 15.53125 -21.65625 L 11.90625 -10.796875 Z M 19.203125 -10.796875 "/></g></g></g><g fill="#ffffff" fill-opacity="1"><g transform="translate(202.245301, 53.449936)"><g/></g></g><g fill="#ffffff" fill-opacity="1"><g transform="translate(211.191891, 53.449936)"><g/></g></g><g fill="#ffffff" fill-opacity="1"><g transform="translate(220.140901, 53.449936)"><g><path d="M 19.796875 0 L 9.828125 -13.078125 L 9.828125 0 L 2.609375 0 L 2.609375 -29.625 L 9.828125 -29.625 L 9.828125 -16.625 L 19.703125 -29.625 L 28.1875 -29.625 L 16.71875 -15.109375 L 28.609375 0 Z M 19.796875 0 "/></g></g></g><g clip-path="url(#4c844d4e7d)"><path fill="#8c52ff" d="M 221.203125 14.289062 L 202.324219 35.949219 L 212.652344 34.5 C 212.652344 34.5 200.933594 59.222656 201.527344 59.476562 C 202.121094 59.730469 221.203125 29.554688 221.203125 29.554688 L 212.855469 29.9375 Z M 221.203125 14.289062 " fill-opacity="1" fill-rule="nonzero"/></g></svg>