<svg xmlns="http://www.w3.org/2000/svg" xmlns:xlink="http://www.w3.org/1999/xlink" width="300" zoomAndPan="magnify" viewBox="0 0 224.87999 74.999997" height="100" preserveAspectRatio="xMidYMid meet" version="1.0"><defs><g/><clipPath id="296d886fa7"><path d="M 101.855469 18.839844 L 145.332031 18.839844 L 145.332031 62.316406 L 101.855469 62.316406 Z M 101.855469 18.839844 " clip-rule="nonzero"/></clipPath><clipPath id="3fb628863a"><path d="M 192 28 L 224.761719 28 L 224.761719 61 L 192 61 Z M 192 28 " clip-rule="nonzero"/></clipPath></defs><g clip-path="url(#296d886fa7)"><path fill="#ffffff" d="M 123.714844 62.5625 C 123.714844 50.53125 113.882812 40.699219 101.855469 40.699219 C 113.882812 40.699219 123.714844 30.867188 123.714844 18.839844 C 123.714844 30.867188 133.546875 40.699219 145.578125 40.699219 C 133.546875 40.699219 123.714844 50.53125 123.714844 62.5625 Z M 123.714844 62.5625 " fill-opacity="1" fill-rule="nonzero"/></g><g fill="#ffffff" fill-opacity="1"><g transform="translate(-3.985199, 59.76029)"><g><path d="M 36.9375 0 L 29.171875 0 L 11.59375 -26.5625 L 11.59375 0 L 3.828125 0 L 3.828125 -38.765625 L 11.59375 -38.765625 L 29.171875 -12.140625 L 29.171875 -38.765625 L 36.9375 -38.765625 Z M 36.9375 0 "/></g></g></g><g fill="#ffffff" fill-opacity="1"><g transform="translate(33.010814, 59.76029)"><g><path d="M 32.390625 -16.03125 C 32.390625 -14.914062 32.316406 -13.914062 32.171875 -13.03125 L 9.703125 -13.03125 C 9.890625 -10.8125 10.664062 -9.070312 12.03125 -7.8125 C 13.40625 -6.5625 15.085938 -5.9375 17.078125 -5.9375 C 19.960938 -5.9375 22.015625 -7.175781 23.234375 -9.65625 L 31.625 -9.65625 C 30.726562 -6.695312 29.023438 -4.265625 26.515625 -2.359375 C 24.003906 -0.453125 20.914062 0.5 17.25 0.5 C 14.289062 0.5 11.632812 -0.15625 9.28125 -1.46875 C 6.9375 -2.78125 5.109375 -4.640625 3.796875 -7.046875 C 2.484375 -9.453125 1.828125 -12.222656 1.828125 -15.359375 C 1.828125 -18.546875 2.472656 -21.335938 3.765625 -23.734375 C 5.066406 -26.140625 6.878906 -27.988281 9.203125 -29.28125 C 11.535156 -30.582031 14.21875 -31.234375 17.25 -31.234375 C 20.175781 -31.234375 22.789062 -30.601562 25.09375 -29.34375 C 27.40625 -28.082031 29.195312 -26.296875 30.46875 -23.984375 C 31.75 -21.679688 32.390625 -19.03125 32.390625 -16.03125 Z M 24.34375 -18.25 C 24.3125 -20.25 23.59375 -21.847656 22.1875 -23.046875 C 20.78125 -24.242188 19.0625 -24.84375 17.03125 -24.84375 C 15.101562 -24.84375 13.484375 -24.257812 12.171875 -23.09375 C 10.859375 -21.9375 10.054688 -20.320312 9.765625 -18.25 Z M 24.34375 -18.25 "/></g></g></g><g fill="#ffffff" fill-opacity="1"><g transform="translate(63.461658, 59.76029)"><g><path d="M 11.59375 -26.234375 C 12.59375 -27.710938 13.96875 -28.914062 15.71875 -29.84375 C 17.476562 -30.769531 19.488281 -31.234375 21.75 -31.234375 C 24.375 -31.234375 26.75 -30.582031 28.875 -29.28125 C 31 -27.988281 32.679688 -26.148438 33.921875 -23.765625 C 35.160156 -21.378906 35.78125 -18.613281 35.78125 -15.46875 C 35.78125 -12.332031 35.160156 -9.550781 33.921875 -7.125 C 32.679688 -4.707031 31 -2.832031 28.875 -1.5 C 26.75 -0.164062 24.375 0.5 21.75 0.5 C 19.457031 0.5 17.445312 0.046875 15.71875 -0.859375 C 14 -1.765625 12.625 -2.9375 11.59375 -4.375 L 11.59375 0 L 3.828125 0 L 3.828125 -41.046875 L 11.59375 -41.046875 Z M 27.84375 -15.46875 C 27.84375 -17.320312 27.460938 -18.921875 26.703125 -20.265625 C 25.953125 -21.617188 24.957031 -22.644531 23.71875 -23.34375 C 22.476562 -24.050781 21.132812 -24.40625 19.6875 -24.40625 C 18.28125 -24.40625 16.957031 -24.046875 15.71875 -23.328125 C 14.488281 -22.609375 13.492188 -21.5625 12.734375 -20.1875 C 11.972656 -18.820312 11.59375 -17.210938 11.59375 -15.359375 C 11.59375 -13.515625 11.972656 -11.90625 12.734375 -10.53125 C 13.492188 -9.164062 14.488281 -8.125 15.71875 -7.40625 C 16.957031 -6.6875 18.28125 -6.328125 19.6875 -6.328125 C 21.132812 -6.328125 22.476562 -6.695312 23.71875 -7.4375 C 24.957031 -8.175781 25.953125 -9.226562 26.703125 -10.59375 C 27.460938 -11.957031 27.84375 -13.582031 27.84375 -15.46875 Z M 27.84375 -15.46875 "/></g></g></g><g fill="#ffffff" fill-opacity="1"><g transform="translate(146.34624, 59.948395)"><g><path d="M 32.84375 -30.734375 L 32.84375 0 L 25.015625 0 L 25.015625 -3.890625 C 24.015625 -2.554688 22.707031 -1.507812 21.09375 -0.75 C 19.488281 0.0078125 17.742188 0.390625 15.859375 0.390625 C 13.460938 0.390625 11.335938 -0.113281 9.484375 -1.125 C 7.640625 -2.144531 6.1875 -3.644531 5.125 -5.625 C 4.070312 -7.601562 3.546875 -9.960938 3.546875 -12.703125 L 3.546875 -30.734375 L 11.3125 -30.734375 L 11.3125 -13.8125 C 11.3125 -11.375 11.921875 -9.5 13.140625 -8.1875 C 14.367188 -6.875 16.035156 -6.21875 18.140625 -6.21875 C 20.285156 -6.21875 21.96875 -6.875 23.1875 -8.1875 C 24.40625 -9.5 25.015625 -11.375 25.015625 -13.8125 L 25.015625 -30.734375 Z M 32.84375 -30.734375 "/></g></g></g><g fill="#ffffff" fill-opacity="1"><g transform="translate(179.240127, 59.948395)"><g><path d="M 11.59375 -41.046875 L 11.59375 0 L 3.828125 0 L 3.828125 -41.046875 Z M 11.59375 -41.046875 "/></g></g></g><g clip-path="url(#3fb628863a)"><g fill="#ffffff" fill-opacity="1"><g transform="translate(190.88888, 59.948395)"><g><path d="M 1.828125 -15.46875 C 1.828125 -18.582031 2.445312 -21.335938 3.6875 -23.734375 C 4.925781 -26.140625 6.609375 -27.988281 8.734375 -29.28125 C 10.859375 -30.582031 13.234375 -31.234375 15.859375 -31.234375 C 18.148438 -31.234375 20.15625 -30.769531 21.875 -29.84375 C 23.601562 -28.914062 24.984375 -27.75 26.015625 -26.34375 L 26.015625 -30.734375 L 33.84375 -30.734375 L 33.84375 0 L 26.015625 0 L 26.015625 -4.5 C 25.015625 -3.050781 23.632812 -1.851562 21.875 -0.90625 C 20.125 0.03125 18.101562 0.5 15.8125 0.5 C 13.21875 0.5 10.859375 -0.164062 8.734375 -1.5 C 6.609375 -2.832031 4.925781 -4.707031 3.6875 -7.125 C 2.445312 -9.550781 1.828125 -12.332031 1.828125 -15.46875 Z M 26.015625 -15.359375 C 26.015625 -17.242188 25.644531 -18.863281 24.90625 -20.21875 C 24.164062 -21.570312 23.164062 -22.609375 21.90625 -23.328125 C 20.65625 -24.046875 19.304688 -24.40625 17.859375 -24.40625 C 16.421875 -24.40625 15.085938 -24.050781 13.859375 -23.34375 C 12.640625 -22.644531 11.648438 -21.617188 10.890625 -20.265625 C 10.140625 -18.921875 9.765625 -17.320312 9.765625 -15.46875 C 9.765625 -13.625 10.140625 -12.007812 10.890625 -10.625 C 11.648438 -9.238281 12.648438 -8.175781 13.890625 -7.4375 C 15.128906 -6.695312 16.453125 -6.328125 17.859375 -6.328125 C 19.304688 -6.328125 20.65625 -6.6875 21.90625 -7.40625 C 23.164062 -8.125 24.164062 -9.15625 24.90625 -10.5 C 25.644531 -11.851562 26.015625 -13.472656 26.015625 -15.359375 Z M 26.015625 -15.359375 "/></g></g></g></g></svg>